<?xml version="1.0" encoding="UTF-8"?>
<svg id="Layer_1" xmlns="http://www.w3.org/2000/svg" xmlns:xlink="http://www.w3.org/1999/xlink" version="1.1" viewBox="0 0 562 562">
  <!-- Generator: Adobe Illustrator 30.3.0, SVG Export Plug-In . SVG Version: 2.1.3 Build 182)  -->
  <defs>
    <style>
      .st0 {
        filter: url(#drop-shadow-1);
      }

      .st1 {
        fill: #61c128;
      }
    </style>
    <filter id="drop-shadow-1" x="14.8" y="14.9" width="542.4" height="542.2" filterUnits="userSpaceOnUse">
      <feOffset dx="5" dy="5"/>
      <feGaussianBlur result="blur" stdDeviation="5"/>
      <feFlood flood-color="#000" flood-opacity=".5"/>
      <feComposite in2="blur" operator="in"/>
      <feComposite in="SourceGraphic"/>
    </filter>
  </defs>
  <g class="st0">
    <path class="st1" d="M477,537H85c-33.1,0-60-26.9-60-60V85c0-33.1,26.9-60,60-60h392c33.1,0,60,26.9,60,60v392c0,33.1-26.9,60-60,60ZM85,65c-11,0-20,9-20,20v392c0,11,9,20,20,20h392c11,0,20-9,20-20V85c0-11-9-20-20-20H85ZM455.9,176.3l-29.8-26.7-185,206.6-107.4-102-27.6,29,137.2,130.4,212.5-237.3Z"/>
  </g>
</svg>